<?xml version="1.0" encoding="UTF-8" standalone="no"?>
<!-- Created with Inkscape (http://www.inkscape.org/) -->

<svg
   xmlns:dc="http://purl.org/dc/elements/1.1/"
   xmlns:cc="http://creativecommons.org/ns#"
   xmlns:rdf="http://www.w3.org/1999/02/22-rdf-syntax-ns#"
   xmlns:svg="http://www.w3.org/2000/svg"
   xmlns="http://www.w3.org/2000/svg"
   xmlns:sodipodi="http://sodipodi.sourceforge.net/DTD/sodipodi-0.dtd"
   xmlns:inkscape="http://www.inkscape.org/namespaces/inkscape"
   width="210mm"
   height="297mm"
   viewBox="0 0 210 297"
   version="1.1"
   id="svg8"
   inkscape:version="0.92.4 (5da689c313, 2019-01-14)"
   sodipodi:docname="k8s_layers.svg">
  <defs
     id="defs2" />
  <sodipodi:namedview
     id="base"
     pagecolor="#ffffff"
     bordercolor="#666666"
     borderopacity="1.0"
     inkscape:pageopacity="0.0"
     inkscape:pageshadow="2"
     inkscape:zoom="1"
     inkscape:cx="218.5"
     inkscape:cy="811.38365"
     inkscape:document-units="mm"
     inkscape:current-layer="layer1"
     showgrid="false"
     showguides="true"
     inkscape:guide-bbox="true"
     inkscape:window-width="1920"
     inkscape:window-height="1018"
     inkscape:window-x="0"
     inkscape:window-y="34"
     inkscape:window-maximized="1">
    <sodipodi:guide
       position="24.870833,265.90626"
       orientation="1,0"
       id="guide4543"
       inkscape:locked="false" />
  </sodipodi:namedview>
  <metadata
     id="metadata5">
    <rdf:RDF>
      <cc:Work
         rdf:about="">
        <dc:format>image/svg+xml</dc:format>
        <dc:type
           rdf:resource="http://purl.org/dc/dcmitype/StillImage" />
        <dc:title></dc:title>
      </cc:Work>
    </rdf:RDF>
  </metadata>
  <g
     inkscape:label="Layer 1"
     inkscape:groupmode="layer"
     id="layer1">
    <rect
       id="rect10"
       width="171.97917"
       height="85.195831"
       x="19.049999"
       y="86.12709"
       style="fill:#366bff;fill-opacity:0.33149175;stroke:none;stroke-width:0.26458332;stroke-opacity:1" />
    <flowRoot
       xml:space="preserve"
       id="flowRoot4520"
       style="font-style:normal;font-weight:normal;font-size:40px;line-height:1.25;font-family:sans-serif;letter-spacing:0px;word-spacing:0px;fill:#000000;fill-opacity:1;stroke:none"
       transform="matrix(0.26458333,0,0,0.26458333,-8.9958326,72.231262)"><flowRegion
         id="flowRegion4522"><rect
           id="rect4524"
           width="224"
           height="82"
           x="126"
           y="60.519684" /></flowRegion><flowPara
         id="flowPara4526">Ingress</flowPara></flowRoot>    <rect
       id="rect10-3"
       width="159.80833"
       height="65.087494"
       x="24.870832"
       y="101.7375"
       style="fill:#cb6bff;fill-opacity:0.33149175;stroke:none;stroke-width:0.22292762;stroke-opacity:1" />
    <flowRoot
       xml:space="preserve"
       id="flowRoot4520-6"
       style="font-style:normal;font-weight:normal;font-size:40px;line-height:1.25;font-family:sans-serif;letter-spacing:0px;word-spacing:0px;fill:#000000;fill-opacity:1;stroke:none"
       transform="matrix(0.26458333,0,0,0.26458333,-3.2390782,88.114055)"><flowRegion
         id="flowRegion4522-7"><rect
           id="rect4524-5"
           width="224"
           height="82"
           x="126"
           y="60.519684" /></flowRegion><flowPara
         id="flowPara4526-3">Service</flowPara></flowRoot>    <rect
       id="rect10-3-5"
       width="147.90208"
       height="44.449997"
       x="30.691666"
       y="116.81876"
       style="fill:#0004ff;fill-opacity:0.33149175;stroke:none;stroke-width:0.17723049;stroke-opacity:1" />
    <flowRoot
       xml:space="preserve"
       id="flowRoot4520-6-6"
       style="font-style:normal;font-weight:normal;font-size:40px;line-height:1.25;font-family:sans-serif;letter-spacing:0px;word-spacing:0px;fill:#000000;fill-opacity:1;stroke:none"
       transform="matrix(0.26458333,0,0,0.26458333,2.0639573,104.38386)"><flowRegion
         id="flowRegion4522-7-2"><rect
           id="rect4524-5-9"
           width="224"
           height="82"
           x="126"
           y="60.519684" /></flowRegion><flowPara
         id="flowPara4526-3-1">Pod</flowPara></flowRoot>    <rect
       id="rect10-3-5-2"
       width="108.47916"
       height="30.42708"
       x="63.63229"
       y="123.69793"
       style="fill:#00005e;fill-opacity:0.33149175;stroke:none;stroke-width:0.12557949;stroke-opacity:1" />
    <flowRoot
       xml:space="preserve"
       id="flowRoot4520-6-6-7"
       style="font-style:normal;font-weight:normal;font-size:40px;line-height:1.25;font-family:sans-serif;letter-spacing:0px;word-spacing:0px;fill:#000000;fill-opacity:1;stroke:none"
       transform="matrix(0.26458333,0,0,0.26458333,59.416012,117.61304)"><flowRegion
         id="flowRegion4522-7-2-0"><rect
           id="rect4524-5-9-9"
           width="224"
           height="82"
           x="126"
           y="60.519684" /></flowRegion><flowPara
         id="flowPara4526-3-1-3">Container</flowPara></flowRoot>    <path
       style="fill:none;fill-opacity:1;stroke:#000000;stroke-width:1;stroke-opacity:1;stroke-miterlimit:4;stroke-dasharray:none"
       d="M 121.97292,7.1489174 A 20.372917,12.303125 0 0 0 105.75995,12.027172 20.372917,12.303125 0 0 0 91.016667,8.2072507 20.372917,12.303125 0 0 0 70.64375,20.510375 a 20.372917,12.303125 0 0 0 0.01189,0.203605 20.372917,12.303124 0 0 0 -13.505634,11.570353 20.372917,12.303124 0 0 0 20.372916,12.303125 20.372917,12.303124 0 0 0 8.753988,-1.206645 20.372917,12.303125 0 0 0 10.031428,1.60352 20.372917,12.303125 0 0 0 10.882532,-1.90686 20.372917,12.303125 0 0 0 1.81746,0.05478 20.372917,12.303125 0 0 0 7.3825,-0.836123 20.372917,12.303125 0 0 0 9.28625,1.36529 20.372917,12.303125 0 0 0 10.77661,-1.870171 20.372917,12.303125 0 0 0 0.60048,0.01809 A 20.372917,12.303125 0 0 0 157.42708,29.506208 20.372917,12.303125 0 0 0 142.09779,17.602025 20.372917,12.303125 0 0 0 121.97292,7.1489174 Z"
       id="path4670"
       inkscape:connector-curvature="0" />
    <flowRoot
       xml:space="preserve"
       id="flowRoot4520-9"
       style="font-style:normal;font-weight:normal;font-size:40px;line-height:1.25;font-family:sans-serif;letter-spacing:0px;word-spacing:0px;fill:#000000;fill-opacity:1;stroke:none"
       transform="matrix(0.26458333,0,0,0.26458333,51.529674,2.9182016)"><flowRegion
         id="flowRegion4522-2"><rect
           id="rect4524-0"
           width="224"
           height="82"
           x="126"
           y="60.519684" /></flowRegion><flowPara
         id="flowPara4526-2">External</flowPara></flowRoot>    <path
       style="fill:none;fill-opacity:1;stroke:#000000;stroke-width:1;stroke-opacity:1;stroke-miterlimit:4;stroke-dasharray:none"
       d="m 104.95699,48.553427 v 20.845631 h -6.873219 l 10.606459,12.919486 10.6061,-12.919486 h -6.56548 V 48.553427 Z"
       id="path4742"
       inkscape:connector-curvature="0" />
  </g>
</svg>
